<?xml version="1.0" encoding="utf-8"?>
<!-- Generator: Adobe Illustrator 15.0.0, SVG Export Plug-In . SVG Version: 6.00 Build 0)  -->
<!DOCTYPE svg PUBLIC "-//W3C//DTD SVG 1.1//EN" "http://www.w3.org/Graphics/SVG/1.1/DTD/svg11.dtd">
<svg version="1.1" id="Layer_1" xmlns="http://www.w3.org/2000/svg" xmlns:xlink="http://www.w3.org/1999/xlink" x="0px" y="0px"
	 width="162px" height="41px" viewBox="0 0 162 41" enable-background="new 0 0 162 41" xml:space="preserve">
<path fill="#4A4A4A" d="M13.69,35.599c-0.737,0.803-1.767,1.203-3.086,1.203c-0.96,0-1.785-0.187-2.457-0.56
	c-0.676-0.373-1.222-0.867-1.641-1.482c-0.424-0.625-0.728-1.319-0.918-2.093c-0.191-0.774-0.289-1.571-0.289-2.392
	c0-0.858,0.098-1.688,0.289-2.49c0.191-0.802,0.494-1.513,0.918-2.142c0.419-0.63,0.965-1.126,1.641-1.504
	c0.671-0.373,1.497-0.56,2.457-0.56c0.536,0,1.044,0.087,1.525,0.264c0.485,0.166,0.918,0.41,1.3,0.721
	c0.378,0.305,0.704,0.669,0.956,1.079c0.256,0.41,0.419,0.86,0.494,1.35h4.163c-0.131-1.126-0.438-2.128-0.933-3.007
	c-0.489-0.867-1.124-1.604-1.874-2.196c-0.755-0.592-1.613-1.039-2.573-1.35c-0.956-0.31-1.977-0.464-3.059-0.464
	c-1.492,0-2.834,0.264-4.032,0.793c-1.194,0.524-2.201,1.254-3.026,2.182c-0.82,0.93-1.45,2.019-1.893,3.266
	C1.219,27.462,1,28.82,1,30.275c0,1.422,0.219,2.741,0.653,3.977c0.443,1.226,1.072,2.298,1.893,3.207
	c0.825,0.909,1.832,1.623,3.026,2.14c1.198,0.522,2.541,0.783,4.032,0.783c1.208,0,2.312-0.187,3.319-0.545
	c1.002-0.363,1.879-0.891,2.629-1.585c0.746-0.695,1.348-1.534,1.804-2.518c0.457-0.975,0.741-2.079,0.849-3.306h-4.159
	C14.879,33.743,14.427,34.797,13.69,35.599"/>
<path fill="#4A4A4A" d="M32.977,27.037c-0.387-0.501-0.909-0.893-1.575-1.175c-0.667-0.286-1.521-0.424-2.56-0.424
	c-0.732,0-1.479,0.187-2.247,0.56c-0.765,0.37-1.395,0.967-1.889,1.79h-0.079V20.44h-3.888v19.504h3.888v-7.403
	c0-1.437,0.238-2.471,0.713-3.105c0.472-0.624,1.24-0.937,2.299-0.937c0.928,0,1.576,0.284,1.944,0.857
	c0.363,0.573,0.545,1.45,0.545,2.615v7.973h3.889v-8.686c0-0.872-0.079-1.674-0.233-2.392
	C33.625,28.145,33.359,27.538,32.977,27.037"/>
<path fill="#4A4A4A" d="M48.688,36.802v-7.348c0-0.857-0.195-1.543-0.573-2.062c-0.383-0.52-0.877-0.921-1.478-1.212
	c-0.602-0.292-1.273-0.487-2-0.592c-0.732-0.096-1.45-0.149-2.163-0.149c-0.783,0-1.566,0.077-2.346,0.235
	c-0.769,0.151-1.469,0.41-2.088,0.778c-0.62,0.361-1.133,0.844-1.534,1.445s-0.63,1.356-0.686,2.266h3.889
	c0.074-0.765,0.331-1.31,0.769-1.641c0.438-0.324,1.035-0.492,1.805-0.492c0.345,0,0.671,0.025,0.975,0.072
	c0.298,0.042,0.563,0.133,0.792,0.272c0.229,0.138,0.41,0.329,0.546,0.571c0.14,0.247,0.205,0.578,0.205,0.998
	c0.019,0.4-0.103,0.708-0.354,0.918c-0.257,0.21-0.602,0.368-1.04,0.476c-0.438,0.112-0.941,0.191-1.506,0.242
	c-0.568,0.061-1.142,0.131-1.725,0.224c-0.583,0.089-1.161,0.215-1.739,0.373c-0.573,0.149-1.086,0.383-1.533,0.695
	c-0.448,0.312-0.812,0.723-1.096,1.24c-0.28,0.521-0.425,1.179-0.425,1.98c0,0.728,0.126,1.357,0.373,1.884
	c0.247,0.527,0.588,0.97,1.026,1.311c0.438,0.35,0.946,0.601,1.533,0.764c0.583,0.168,1.217,0.248,1.889,0.248
	c0.876,0,1.734-0.131,2.573-0.383c0.839-0.256,1.571-0.699,2.187-1.343c0.019,0.242,0.051,0.476,0.098,0.699
	c0.047,0.229,0.107,0.457,0.177,0.672h3.944c-0.187-0.294-0.312-0.728-0.382-1.311C48.725,38.051,48.688,37.44,48.688,36.802
	 M44.8,34.48c0,0.219-0.023,0.513-0.065,0.876c-0.047,0.364-0.173,0.723-0.373,1.077c-0.2,0.35-0.508,0.657-0.928,0.918
	c-0.42,0.252-1.017,0.383-1.781,0.383c-0.312,0-0.61-0.033-0.909-0.084c-0.289-0.056-0.54-0.154-0.76-0.289
	c-0.219-0.135-0.392-0.321-0.521-0.56c-0.126-0.233-0.191-0.526-0.191-0.876c0-0.364,0.065-0.662,0.191-0.896
	c0.13-0.242,0.298-0.438,0.508-0.587c0.21-0.159,0.457-0.28,0.736-0.369c0.284-0.088,0.573-0.168,0.862-0.219
	c0.312-0.056,0.625-0.103,0.933-0.14c0.312-0.037,0.611-0.079,0.891-0.14c0.284-0.052,0.546-0.122,0.793-0.205
	c0.247-0.08,0.452-0.187,0.615-0.336V34.48z"/>
<path fill="#4A4A4A" d="M55.639,21.585h-3.884v4.235h-2.354v2.597h2.354v8.329c0,0.713,0.117,1.286,0.354,1.725
	c0.238,0.434,0.56,0.774,0.97,1.012c0.415,0.233,0.886,0.392,1.427,0.48c0.536,0.079,1.104,0.121,1.711,0.121
	c0.382,0,0.773-0.014,1.175-0.028c0.401-0.019,0.77-0.056,1.096-0.111v-3.007c-0.182,0.041-0.373,0.061-0.573,0.079
	c-0.201,0.023-0.41,0.032-0.63,0.032c-0.657,0-1.096-0.111-1.314-0.331c-0.224-0.214-0.331-0.652-0.331-1.306v-6.995h2.849V25.82
	h-2.849V21.585z"/>
<path fill="#4A4A4A" d="M71.751,27.215c-0.555-0.602-1.185-1.047-1.875-1.341c-0.694-0.289-1.402-0.436-2.106-0.436
	c-0.877,0-1.721,0.172-2.536,0.506c-0.812,0.34-1.455,0.869-1.935,1.599h-0.047V20.44h-3.889v19.504h3.697v-1.8h0.052
	c0.424,0.783,1.039,1.333,1.864,1.664c0.82,0.331,1.748,0.49,2.793,0.49c0.704,0,1.412-0.141,2.106-0.438
	c0.69-0.289,1.32-0.737,1.875-1.334c0.555-0.605,1.007-1.37,1.356-2.312c0.345-0.938,0.513-2.052,0.513-3.343
	c0-1.292-0.168-2.41-0.513-3.353C72.758,28.588,72.306,27.815,71.751,27.215 M69.546,34.592c-0.126,0.551-0.327,1.026-0.602,1.445
	c-0.275,0.42-0.615,0.746-1.026,0.998c-0.41,0.242-0.908,0.368-1.491,0.368c-0.569,0-1.059-0.126-1.479-0.368
	c-0.419-0.252-0.769-0.578-1.039-0.998c-0.275-0.419-0.476-0.895-0.61-1.445c-0.122-0.545-0.187-1.109-0.187-1.696
	c0-0.602,0.064-1.175,0.187-1.716c0.135-0.551,0.335-1.035,0.61-1.455c0.271-0.415,0.62-0.746,1.039-0.997
	c0.42-0.243,0.909-0.368,1.479-0.368c0.583,0,1.081,0.125,1.491,0.368c0.411,0.251,0.751,0.582,1.026,0.997
	c0.274,0.42,0.476,0.904,0.602,1.455c0.13,0.541,0.19,1.114,0.19,1.716C69.736,33.482,69.676,34.047,69.546,34.592"/>
<path fill="#4A4A4A" d="M87.312,27.476c-0.639-0.65-1.408-1.149-2.312-1.504c-0.904-0.354-1.912-0.536-3.025-0.536
	c-1.115,0-2.118,0.183-3.012,0.536c-0.896,0.354-1.66,0.854-2.299,1.504c-0.639,0.646-1.133,1.429-1.478,2.348
	c-0.354,0.918-0.522,1.943-0.522,3.072c0,1.128,0.168,2.153,0.522,3.058c0.345,0.914,0.839,1.688,1.478,2.341
	c0.639,0.644,1.403,1.138,2.299,1.491c0.895,0.341,1.897,0.514,3.012,0.514c1.113,0,2.121-0.173,3.025-0.514
	c0.904-0.354,1.674-0.848,2.312-1.491c0.639-0.653,1.133-1.427,1.477-2.341c0.346-0.904,0.523-1.93,0.523-3.058
	c0-1.129-0.178-2.154-0.523-3.072C88.445,28.904,87.951,28.121,87.312,27.476 M85.26,34.55c-0.111,0.536-0.293,1.017-0.562,1.45
	c-0.266,0.429-0.621,0.765-1.068,1.025c-0.453,0.252-0.998,0.383-1.654,0.383c-0.658,0-1.204-0.131-1.642-0.383
	c-0.438-0.261-0.787-0.597-1.054-1.025c-0.27-0.434-0.452-0.914-0.563-1.45c-0.107-0.536-0.163-1.096-0.163-1.654
	c0-0.564,0.056-1.119,0.163-1.669c0.111-0.541,0.294-1.026,0.563-1.445c0.267-0.415,0.616-0.761,1.054-1.021
	c0.438-0.268,0.984-0.396,1.642-0.396c0.656,0,1.201,0.129,1.654,0.396c0.447,0.261,0.803,0.606,1.068,1.021
	c0.27,0.419,0.451,0.904,0.562,1.445c0.107,0.55,0.164,1.104,0.164,1.669C85.424,33.454,85.367,34.014,85.26,34.55"/>
<path fill="#4A4A4A" d="M103.051,27.476c-0.639-0.65-1.408-1.149-2.312-1.504c-0.904-0.354-1.912-0.536-3.025-0.536
	c-1.115,0-2.117,0.183-3.012,0.536c-0.891,0.354-1.66,0.854-2.299,1.504c-0.639,0.646-1.133,1.429-1.477,2.348
	c-0.355,0.918-0.518,1.943-0.518,3.072c0,1.128,0.162,2.153,0.518,3.058c0.344,0.914,0.838,1.688,1.477,2.341
	c0.639,0.644,1.408,1.138,2.299,1.491c0.895,0.341,1.896,0.514,3.012,0.514c1.113,0,2.121-0.173,3.025-0.514
	c0.904-0.354,1.674-0.848,2.312-1.491c0.639-0.653,1.133-1.427,1.479-2.341c0.344-0.904,0.521-1.93,0.521-3.058
	c0-1.129-0.178-2.154-0.521-3.072C104.184,28.904,103.689,28.121,103.051,27.476 M101,34.55c-0.107,0.536-0.295,1.017-0.561,1.45
	c-0.266,0.429-0.625,0.765-1.072,1.025c-0.441,0.252-0.998,0.383-1.654,0.383c-0.658,0-1.203-0.131-1.641-0.383
	c-0.439-0.261-0.789-0.597-1.055-1.025c-0.27-0.434-0.451-0.914-0.559-1.45c-0.111-0.536-0.168-1.096-0.168-1.654
	c0-0.564,0.057-1.119,0.168-1.669c0.107-0.541,0.289-1.026,0.559-1.445c0.266-0.415,0.615-0.761,1.055-1.021
	c0.438-0.268,0.982-0.396,1.641-0.396c0.656,0,1.213,0.129,1.654,0.396c0.447,0.261,0.807,0.606,1.072,1.021
	c0.266,0.419,0.453,0.904,0.561,1.445c0.107,0.55,0.162,1.104,0.162,1.669C101.162,33.454,101.107,34.014,101,34.55"/>
<polygon fill="#4A4A4A" points="120.328,25.82 115.727,25.82 110.826,30.899 110.826,20.44 106.939,20.44 106.939,39.944 
	110.826,39.944 110.826,35.082 112.332,33.637 116.221,39.944 120.926,39.944 114.986,31.012 "/>
<path fill="#4A4A4A" d="M133.354,33.758c-0.252-0.448-0.592-0.82-1.012-1.124c-0.42-0.298-0.9-0.536-1.436-0.718
	c-0.541-0.182-1.092-0.34-1.654-0.466c-0.555-0.126-1.088-0.247-1.619-0.354c-0.531-0.112-0.996-0.233-1.406-0.368
	c-0.412-0.14-0.746-0.322-1.004-0.536c-0.252-0.22-0.381-0.504-0.381-0.849c0-0.289,0.068-0.522,0.219-0.69
	c0.145-0.175,0.32-0.308,0.535-0.398c0.211-0.091,0.443-0.153,0.695-0.177c0.256-0.028,0.494-0.045,0.713-0.045
	c0.695,0,1.291,0.136,1.809,0.396c0.508,0.262,0.793,0.77,0.85,1.516h3.691c-0.07-0.872-0.293-1.595-0.676-2.168
	c-0.369-0.578-0.84-1.035-1.408-1.38c-0.564-0.35-1.203-0.597-1.926-0.739c-0.717-0.149-1.463-0.222-2.229-0.222
	c-0.768,0-1.52,0.068-2.246,0.205c-0.727,0.141-1.385,0.373-1.973,0.714c-0.588,0.338-1.053,0.797-1.408,1.38
	c-0.354,0.583-0.535,1.328-0.535,2.237c0,0.62,0.131,1.143,0.387,1.571c0.252,0.429,0.588,0.783,1.012,1.063
	c0.42,0.289,0.9,0.517,1.436,0.689c0.537,0.168,1.092,0.317,1.654,0.447c1.391,0.289,2.473,0.583,3.246,0.877
	c0.777,0.289,1.16,0.728,1.16,1.31c0,0.346-0.078,0.63-0.242,0.858s-0.369,0.415-0.615,0.545c-0.248,0.141-0.521,0.238-0.82,0.299
	c-0.303,0.069-0.592,0.098-0.863,0.098c-0.387,0-0.754-0.042-1.109-0.135c-0.354-0.089-0.672-0.233-0.945-0.425
	c-0.271-0.191-0.494-0.434-0.672-0.731c-0.172-0.304-0.256-0.667-0.256-1.087h-3.697c0.037,0.951,0.252,1.739,0.643,2.364
	c0.393,0.629,0.895,1.138,1.506,1.52c0.611,0.383,1.311,0.652,2.094,0.82c0.783,0.159,1.59,0.243,2.41,0.243
	c0.803,0,1.59-0.075,2.363-0.229c0.779-0.159,1.469-0.425,2.07-0.807c0.602-0.383,1.09-0.891,1.463-1.521
	c0.373-0.624,0.561-1.403,0.561-2.331C133.736,34.755,133.609,34.2,133.354,33.758"/>
<path fill="#00AAA1" d="M128.244,0h-11.836c-0.402,0-0.775,0.154-1.072,0.455c-0.309,0.305-0.477,0.702-0.477,1.098v18.245
	c0,0.396,0.168,0.793,0.477,1.099c0.297,0.3,0.68,0.459,1.072,0.459h13.705c3.357,0,6.08,2.711,6.08,3.741V5.702
	C136.193,2.555,132.637,0,128.244,0"/>
<path fill="#00AAA1" d="M160.543,9.977c-0.303-0.301-0.699-0.452-1.096-0.452h-11.809c-4.402,0-7.953,2.553-7.953,5.699v19.401
	c0-1.035,2.723-3.753,6.078-3.753h13.684c0.396,0,0.793-0.149,1.096-0.452c0.303-0.304,0.457-0.695,0.457-1.101V11.074
	C161,10.679,160.846,10.282,160.543,9.977"/>
</svg>
