<?xml version="1.0" encoding="UTF-8" standalone="no"?>
<svg width="28px" height="35px" viewBox="0 0 28 35" version="1.1" xmlns="http://www.w3.org/2000/svg" xmlns:xlink="http://www.w3.org/1999/xlink" xmlns:sketch="http://www.bohemiancoding.com/sketch/ns">
    <!-- Generator: Sketch 3.1 (8751) - http://www.bohemiancoding.com/sketch -->
    <title>IF-logo</title>
    <desc>Created with Sketch.</desc>
    <defs></defs>
    <g id="Setup" stroke="none" stroke-width="1" fill="none" fill-rule="evenodd" sketch:type="MSPage">
        <g id="Setup-Connect-2" sketch:type="MSArtboardGroup" transform="translate(-20.000000, -15.000000)" fill="#F6F6F6">
            <g id="//Header" sketch:type="MSLayerGroup">
                <path d="M44.1488325,15 L23.8511675,15 C21.7242011,15 20,16.7534157 20,18.9167209 L20,46.0832791 C20,48.2465843 21.7242011,50 23.8511675,50 L44.1488325,50 C46.2757989,50 48,48.2465843 48,46.0832791 L48,18.9167209 C48,16.7534157 46.2757989,15 44.1488325,15 L44.1488325,15 Z M25.015883,31.2261281 C25.1353975,30.1362953 25.9750321,29.2172322 27.0564256,29.0358461 C28.1469192,28.8532468 29.1424686,29.3855754 29.6487367,30.2385145 C29.8716888,30.6137227 30,31.0502019 30,31.5154965 C30,31.6438013 29.9902932,31.7696796 29.9714864,31.8925247 C29.7876647,33.0939797 28.7393348,34 27.484433,34 C26.0053657,34 24.8499581,32.7427339 25.015883,31.2261281 L25.015883,31.2261281 Z M27.4094978,46.9957077 C22.8787526,46.3317417 23.7500396,41.0645768 25.0162359,34.5726636 C25.0207325,34.5514287 25.0247002,34.5304928 25.0286678,34.5092579 C25.0834208,34.2684954 25.2654018,34.0860543 25.4936716,34.0687074 C25.5005488,34.0681092 25.5068969,34.0660157 25.5140386,34.0657166 C25.5240899,34.0654175 25.5336122,34.0669129 25.5433989,34.067212 L27.5753439,34.0002172 C27.8390576,33.9912447 28.0421992,34.2616165 27.9924718,34.5547186 C27.1820215,39.3352742 26.9630095,39.4169241 26.8529745,43.2451968 C26.8958247,44.2483239 27.1301781,45.3426715 27.7837756,46.2348385 C28.0250062,46.5644289 27.7848336,47.0507392 27.4094978,46.9957077 L27.4094978,46.9957077 Z M43.0053034,26.0005993 C43.0038302,26.0005993 43.0020624,26 43,26 L43.0106068,26 C43.008839,26.0002996 43.0073659,26.0005993 43.0053034,26.0005993 L43.0053034,26.0005993 Z M43.6187779,24.9498348 L43.5710888,25.1162609 C43.5055163,25.2863448 43.4637883,25.2650081 43.2852523,25.305243 C43.2611096,25.3104248 42.2751374,25.4128409 41.5851357,25.4838615 C41.282906,25.5152569 41.0414799,25.2229443 41.1294067,24.9251452 C41.6817061,23.0569659 41.7392311,21.1439795 40.7839587,20.7968011 C37.7306638,19.6866838 37.6516787,22.8835291 36.5643671,28.9937465 L42.6751298,28.4252762 L41.9419098,29.6823118 C41.9419098,29.6823118 39.1422613,30.17397 36.2481287,30.6857457 C36.1754028,31.0563944 36.0999944,31.4328345 36.0180288,31.8205526 C34.9787044,36.7417069 34.2878085,41.0629956 32.808254,43.6331519 C32.0935135,44.874947 31.1936797,45.7070778 29.9817804,46 C28.9206978,45.8201622 28.1064063,44.9432244 28,43.8340215 C28.0780909,43.7163649 28.2101301,43.6374192 28.3689944,43.6435154 C28.450364,43.6468683 28.5359063,43.6471731 28.6256214,43.6447346 C29.6279868,43.6194354 30.2962304,42.700129 30.8398862,41.1492567 C31.6228817,38.9143912 32.1471638,35.3624426 33.0314986,31.2569593 C32.1334532,31.4169844 31.3483713,31.5581114 30.7963699,31.6590034 C30.8172339,31.5940789 30.8357134,31.5279352 30.8497221,31.4602674 C30.8699899,31.3639475 30.8831044,31.2645795 30.8890656,31.162773 C30.9102276,30.7939532 30.8306464,30.4418979 30.6750607,30.1343448 C30.5707408,29.9279885 30.4288657,29.7454074 30.2634441,29.5878208 C30.2780489,29.5841631 30.2902693,29.5792861 30.3057682,29.5759332 L33.468152,29.2817917 C35.3476988,20.6776205 35.1420396,17.6523832 40.4310593,18.0312618 C43.409542,18.2446286 44.7072817,20.7495556 43.6187779,24.9498348 Z M26.0228576,34.000039 C26.0148426,34.0003356 26.0077181,34.0024119 26,34.0030051 L26.0558081,34.0015221 C26.0448246,34.0012254 26.0341379,33.9997424 26.0228576,34.000039 Z" id="IF-logo" sketch:type="MSShapeGroup"></path>
            </g>
        </g>
    </g>
</svg>